<?xml version="1.0" encoding="UTF-8"?>
<svg width="77px" height="81px" viewBox="0 0 77 81" version="1.1" xmlns="http://www.w3.org/2000/svg"
>
    <title>logo_icon</title>
    <g id="Page-1" stroke="none" stroke-width="1" fill="none" fill-rule="evenodd">
        <g id="logo_icon" fill="currentColor">
            <path
                d="M68.9280648,40.5425732 C68.9280648,58.4241002 55.2891664,72.8331243 38.5851262,72.8331243 C21.87973,72.8331243 8.24693342,58.4268105 8.24693342,40.5425732 C8.24693342,22.6556257 21.87973,8.24795681 38.5851262,8.24795681 C55.2884884,8.24795681 68.9280648,22.6590135 68.9280648,40.5425732 Z M77.1749982,40.5425732 C77.1749982,18.2020136 59.9468804,0 38.5851262,0 C17.22066,0 0,18.1993034 0,40.5425732 C0,62.8838104 17.22066,81.0810811 38.5851262,81.0810811 C59.9482363,81.0810811 77.1749982,62.8817777 77.1749982,40.5425732 Z"
                id="Shape"></path>
            <path
                d="M27.7428229,16.4791618 L27.7428229,64.6019193 C27.7424472,66.2391652 29.0791262,67.5668221 30.7286245,67.5675676 C32.3781228,67.5668221 33.7148019,66.2391652 33.7144262,64.6019193 L33.7144262,16.4791618 C33.7148019,14.8419158 32.3781228,13.514259 30.7286245,13.5135135 C29.0791262,13.514259 27.7424472,14.8419158 27.7428229,16.4791618 L27.7428229,16.4791618 Z M36.2044075,33.94226 L36.2044075,47.1401713 C36.2040321,48.7774172 37.5407111,50.1050741 39.1902094,50.1058196 C40.8397077,50.1050741 42.1763867,48.7774172 42.1760113,47.1401713 L42.1760113,33.94226 C42.1763718,33.1559002 41.8619999,32.4016053 41.3020535,31.8453118 C40.742107,31.2890182 39.982454,30.9762946 39.1902094,30.9759366 C38.3979648,30.9762946 37.6383117,31.2890182 37.0783653,31.8453118 C36.5184189,32.4016053 36.204047,33.1559002 36.2044075,33.94226 L36.2044075,33.94226 Z M19.2771572,27.316976 L19.2771572,52.9060721 C19.2767815,54.543318 20.6134605,55.8709748 22.2629588,55.8717204 C23.9124572,55.8709748 25.2491362,54.543318 25.2487605,52.9060721 L25.2487605,27.316976 C25.2491362,25.6797301 23.9124572,24.3520732 22.2629588,24.3513277 C20.6134605,24.3520732 19.2767815,25.6797301 19.2771572,27.316976 Z M10.8108111,38.9756936 L10.8108111,42.1101131 C10.8104357,43.7473591 12.1471147,45.0750159 13.796613,45.0757614 C15.4461113,45.0750159 16.7827903,43.7473591 16.7824149,42.1101131 L16.7824149,38.9756936 C16.7827755,38.1893338 16.4684035,37.4350389 15.9084571,36.8787454 C15.3485107,36.3224518 14.5888576,36.0097282 13.796613,36.0093702 C13.0043684,36.0097282 12.2447154,36.3224518 11.6847689,36.8787454 C11.1248225,37.4350389 10.8104506,38.1893338 10.8108111,38.9756936 L10.8108111,38.9756936 Z M44.6680328,23.7282243 L44.6680328,57.3569073 C44.6676722,58.1432671 44.9820442,58.897562 45.5419906,59.4538555 C46.101937,60.0101491 46.8615901,60.3232307 47.6538347,60.3232307 C48.4460793,60.3232307 49.2057323,60.0101491 49.7656788,59.4538555 C50.3256252,58.897562 50.6399971,58.1432671 50.6396366,57.3569073 L50.6396366,23.7275492 C50.6399971,22.9411894 50.3256252,22.1868946 49.7656788,21.630601 C49.2057323,21.0743074 48.4460793,20.7612258 47.6538347,20.7612258 C46.8615901,20.7612258 46.101937,21.0743074 45.5419906,21.630601 C44.9820442,22.1868946 44.6676722,22.9411894 44.6680328,23.7275492 L44.6680328,23.7282243 Z M61.5959635,36.3388116 L61.5959635,44.7463199 C61.595588,46.3835659 62.932267,47.7112227 64.5817654,47.7119682 C66.2312637,47.7112227 67.5679427,46.3835659 67.5675673,44.7463199 L67.5675673,36.3381366 C67.5679278,35.5517767 67.2535559,34.7974819 66.6936094,34.2411884 C66.133663,33.6848948 65.37401,33.3721712 64.5817654,33.3718132 C63.7895208,33.3721712 63.0298677,33.6848948 62.4699213,34.2411884 C61.9099748,34.7974819 61.5956029,35.5517767 61.5959635,36.3381366 L61.5959635,36.3388116 Z M53.131658,32.1350575 L53.131658,48.9466987 C53.1312975,49.7330585 53.4456694,50.4873533 54.0056159,51.0436469 C54.5655623,51.5999404 55.3252153,51.912664 56.1174599,51.9130221 C56.9097046,51.912664 57.6693576,51.5999404 58.229304,51.0436469 C58.7892505,50.4873533 59.1036224,49.7330585 59.1032618,48.9466987 L59.1032618,32.1343824 C59.1036373,30.4971364 57.7669583,29.1694796 56.1174599,29.1687341 C54.4679616,29.1694796 53.1312826,30.4971364 53.131658,32.1343824 L53.131658,32.1350575 Z"
                id="Shape"></path>
        </g>
    </g>
</svg>
