<svg width="30" height="17.65" xmlns="http://www.w3.org/2000/svg" xmlns:xlink="http://www.w3.org/1999/xlink" viewBox="0 0 34 20"><defs><path id="ba" d="M0 0h34v20H0z"/></defs><g fill="none" fill-rule="evenodd"><mask id="bb" fill="#fff"><use xlink:href="#ba"/></mask><use fill="#FFF" xlink:href="#ba"/><path d="M4.902 0H13v4.675L4.902 0zm4.392 6H0V.634L9.294 6zm15.448 8H34v5.345L24.742 14zm4.392 6H21v-4.696L29.134 20zm-19.34-6H0v5.655L9.794 14zM13 15.613V20H5.402L13 15.613zM28.598 0H21v4.387L28.598 0zM34 .345V6h-9.794L34 .345z" fill="#3183B3" mask="url(#bb)"/><path fill="#F86262" mask="url(#bb)" d="M0 8h34v4H0z"/><path fill="#F86262" mask="url(#bb)" d="M15 0h4v20h-4z"/></g></svg>