<svg width="400" height="78" xmlns="http://www.w3.org/2000/svg" viewBox="0 0 590 120">
    <g fill="currentColor" fill-rule="evenodd">
        <path
            d="M155.16 58.923c-2.377 0-4.4.87-6.064 2.606-1.665 1.74-2.498 3.863-2.498 6.381 0 2.476.842 4.593 2.527 6.348 1.686 1.758 3.698 2.637 6.036 2.637 2.377 0 4.41-.879 6.095-2.637 1.686-1.755 2.53-3.872 2.53-6.348 0-2.518-.834-4.642-2.499-6.38-1.666-1.738-3.707-2.607-6.126-2.607zm.596-22.102c8.405 0 15.611 3.044 21.617 9.134 6.008 6.09 9.01 13.388 9.01 21.896 0 8.624-3.044 15.972-9.13 22.042C171.17 95.965 163.823 99 155.221 99c-8.603 0-15.956-3.047-22.063-9.136-6.105-6.09-9.158-13.43-9.158-22.013 0-8.746 3.053-16.104 9.158-22.075 6.107-5.97 13.637-8.955 22.598-8.955zm74.853 20.429l.958 21.002-19.38.005V99h-20.055V53.251c0-5.15.876-9.544 2.627-13.18 2.217-4.646 5.587-8.436 10.11-11.37 4.52-2.935 9.23-4.402 14.128-4.402l2.144.055v21.171a15.063 15.063 0 0 0-1.018-.052c-2.538 0-4.496.846-5.872 2.538-1.377 1.693-2.064 4.104-2.064 7.238v1.835l18.422.166"/>
        <path
            d="M258.944 57.084v21.173h-8.956V99h-20.053V53.251c0-5.15.876-9.544 2.628-13.18 2.216-4.646 5.585-8.436 10.107-11.37 4.522-2.935 9.232-4.402 14.13-4.402l2.144.055v21.171a15.11 15.11 0 0 0-1.018-.052c-2.539 0-4.495.846-5.872 2.538-1.377 1.693-2.066 4.104-2.066 7.238v1.835h8.956m64.091-32.704v20.634h9.008v21.333h-9.008c0 4.286.67 7.238 2.01 8.86 1.341 1.62 3.798 2.43 7.374 2.43v21.227a73.005 73.005 0 0 1-2.308.054c-4.54 0-8.82-1.062-12.841-3.188-4.023-2.124-7.248-5.005-9.68-8.641-3.073-4.645-4.61-10.803-4.61-18.473V24.38h20.055m28.201-5.902c2.717 0 5.067.963 7.05 2.89 1.985 1.926 2.976 4.203 2.976 6.832 0 2.808-.938 5.113-2.816 6.914-1.875 1.8-4.279 2.7-7.21 2.7-2.932 0-5.336-.9-7.213-2.7-1.877-1.801-2.816-4.106-2.816-6.914 0-2.63.994-4.906 2.977-6.832 1.985-1.927 4.334-2.89 7.052-2.89zM341.155 99h20.053V45.149h-20.053V99zm103.342 0H424.44V69.94c0-2.232-.227-3.782-.693-4.645-.466-.864-1.31-1.297-2.527-1.297-2.248 0-3.37 2-3.37 5.996V99h-20.055V69.94c0-2.232-.242-3.782-.726-4.645-.481-.864-1.33-1.297-2.547-1.297-2.214 0-3.323 2-3.323 5.996V99h-20.056V65.836c0-6.052 2.022-11.19 6.062-15.42 4.036-4.233 8.936-6.349 14.691-6.349 5.935 0 11.262 2.521 15.983 7.564 5.248-5.043 10.506-7.564 15.758-7.564 6.687 0 12.05 2.45 16.087 7.346 3.182 3.818 4.773 9.38 4.773 16.69V99m82.484 0h-20.055V69.94c0-2.232-.234-3.782-.7-4.645-.463-.864-1.302-1.297-2.516-1.297-2.254 0-3.381 2-3.381 5.996V99h-20.055V69.94c0-2.232-.24-3.782-.725-4.645-.48-.864-1.328-1.297-2.543-1.297-2.218 0-3.327 2-3.327 5.996V99h-20.053V65.836c0-6.052 2.018-11.19 6.055-15.42 4.043-4.233 8.939-6.349 14.696-6.349 5.932 0 11.26 2.521 15.978 7.564 5.255-5.043 10.51-7.564 15.766-7.564 6.682 0 12.044 2.45 16.087 7.346 3.18 3.818 4.773 9.38 4.773 16.69V99m32.659-34.299h10.189c-.718-3.997-2.95-5.996-6.7-5.996-2.504 0-4.54 1.072-6.115 3.214-1.571 2.143-2.36 4.888-2.36 8.236 0 3.494.755 6.32 2.278 8.482 1.518 2.16 3.516 3.24 5.983 3.24 2.001 0 3.928-1.008 5.79-3.025l21.284.02C584.392 92.583 573.009 99 562.376 99c-7.937 0-14.604-2.684-20.002-8.049-5.4-5.365-8.095-12.008-8.095-19.93 0-7.886 2.722-14.548 8.174-19.985 5.453-5.438 12.148-8.157 20.083-8.157 7.756 0 14.274 2.657 19.548 7.968 5.27 5.31 7.905 11.855 7.905 19.633 0 .791-.072 2.053-.214 3.78h-30.401m-366.8-17.273h-16.929l2.833 20.648h14.096M295.03 44.862v14.771c-1.354-.378-2.394-.569-3.131-.569-1.414 0-2.624.43-3.636 1.291-1.014.862-1.518 1.9-1.518 3.116 0 1.036.548 2.351 1.658 3.95l1.424 2.048c2.58 3.698 3.867 7.266 3.867 10.71 0 5.038-2.173 9.304-6.514 12.797-4.342 3.495-9.644 5.241-15.903 5.241-3.01 0-5.984-.57-8.931-1.71V81.51c1.776.936 3.363 1.404 4.741 1.404 1.626 0 2.984-.386 4.072-1.158 1.091-.771 1.636-1.74 1.636-2.905 0-.76-.874-2.42-2.625-4.975-2.793-4.05-4.188-8.102-4.188-12.153 0-4.886 2.11-9.093 6.328-12.626 4.223-3.533 9.263-5.298 15.125-5.298 2.577 0 5.108.355 7.594 1.064M101.667 59.836c0 26.391-20.117 47.657-44.755 47.657-24.64 0-44.748-21.262-44.748-47.657 0-26.399 20.108-47.663 44.748-47.663 24.637 0 44.755 21.269 44.755 47.663zm12.164 0C113.83 26.864 88.42 0 56.912 0 25.4 0 0 26.86 0 59.836c0 32.973 25.4 59.83 56.912 59.83 31.51 0 56.919-26.86 56.919-59.83z"/>
        <path
            d="M40.134 23.836V95.12a4.392 4.392 0 0 0 4.39 4.393 4.392 4.392 0 0 0 4.39-4.393V23.836a4.392 4.392 0 0 0-4.39-4.393 4.392 4.392 0 0 0-4.39 4.393zm12.441 25.868v19.55a4.392 4.392 0 0 0 4.39 4.393 4.392 4.392 0 0 0 4.39-4.393v-19.55a4.392 4.392 0 0 0-4.39-4.394 4.392 4.392 0 0 0-4.39 4.394zM27.687 39.89v37.905a4.392 4.392 0 0 0 4.39 4.393 4.392 4.392 0 0 0 4.39-4.393V39.89a4.392 4.392 0 0 0-4.39-4.393 4.392 4.392 0 0 0-4.39 4.393zM15.239 57.16v4.643a4.392 4.392 0 0 0 4.39 4.393 4.392 4.392 0 0 0 4.39-4.393V57.16a4.392 4.392 0 0 0-4.39-4.394 4.392 4.392 0 0 0-4.39 4.394zm49.78-22.586v49.814a4.392 4.392 0 0 0 4.39 4.394 4.392 4.392 0 0 0 4.39-4.394V34.573a4.392 4.392 0 0 0-4.39-4.394 4.392 4.392 0 0 0-4.39 4.394zm24.889 18.68v12.454a4.392 4.392 0 0 0 4.39 4.393 4.392 4.392 0 0 0 4.39-4.393V53.253a4.392 4.392 0 0 0-4.39-4.394 4.392 4.392 0 0 0-4.39 4.394zm-12.445-6.227V71.93a4.392 4.392 0 0 0 4.39 4.394 4.392 4.392 0 0 0 4.39-4.394V47.026a4.392 4.392 0 0 0-4.39-4.393 4.392 4.392 0 0 0-4.39 4.393z"/>
    </g>
</svg>
